<?xml version="1.0" standalone="no"?>
<!DOCTYPE svg PUBLIC "-//W3C//DTD SVG 20010904//EN"
 "http://www.w3.org/TR/2001/REC-SVG-20010904/DTD/svg10.dtd">
<svg version="1.0" xmlns="http://www.w3.org/2000/svg"
 width="512.000000pt" height="512.000000pt" viewBox="0 0 512.000000 512.000000"
 preserveAspectRatio="xMidYMid meet">
<metadata>
Created by potrace 1.14, written by Peter Selinger 2001-2017
</metadata>
<g transform="translate(0.000000,512.000000) scale(0.100000,-0.100000)"
fill="#000000" stroke="none">
<path d="M2457 4914 c-1 -1 -38 -5 -82 -8 -44 -3 -90 -7 -101 -10 -12 -2 -39
-7 -60 -10 -123 -20 -247 -71 -294 -121 -25 -26 -25 -30 -27 -201 -2 -186 3
-212 44 -239 22 -15 23 -19 18 -128 -2 -61 -7 -195 -10 -297 -3 -102 -8 -234
-10 -295 -2 -60 -7 -191 -10 -290 -10 -305 -14 -340 -49 -443 -44 -128 -90
-197 -229 -342 -433 -452 -688 -848 -783 -1218 -35 -134 -39 -174 -38 -352 1
-126 5 -171 23 -240 57 -218 178 -369 366 -455 136 -63 71 -60 1350 -60 1295
1 1220 -3 1355 65 184 93 297 240 353 457 29 118 32 383 4 513 -41 189 -144
431 -266 626 -60 95 -230 326 -288 391 -15 17 -50 58 -78 90 -27 32 -95 104
-150 161 -164 171 -224 265 -265 416 -21 80 -27 150 -35 446 -3 113 -8 246
-10 295 -2 50 -7 187 -11 305 -3 118 -7 243 -9 278 -2 54 0 64 17 73 37 20 45
64 44 246 l-1 172 -29 30 c-59 61 -216 112 -421 137 -48 5 -314 12 -318 8z"/>
</g>
</svg>
